<svg width="214" height="61" viewBox="0 0 214 61" fill="none" xmlns="http://www.w3.org/2000/svg">
<path d="M3.54226 37.25H6.50618L10.9921 39.719L11.1191 39.7889L11.2428 39.7135L17.7439 35.75H21.2066H21.3397L21.414 35.6396L24.327 31.3108L27.5176 32.6655V35.5V35.6552L27.6566 35.724L30.6673 37.2154L34.1842 39.7041L34.2491 39.75H34.3286H37.8615H39.7774L41.7231 41.6776L41.7962 41.75H41.8991H45.4319H49.8333L51.2744 44.1295L51.3474 44.25H51.4883H54.0117H55.4547L59.4318 46.7126L59.6193 46.8287L59.7579 46.6571L61.7016 44.25H64.3603V46.5V46.75H64.6103H68.1432H72.6855H72.7753L72.8446 46.6928L75.8728 44.1928L78.8317 41.75H83.7887H90.8545H95.3967H99.939H100.014L100.077 41.7086L102.909 39.8378L104.282 41.6509L104.357 41.75H104.481H107.509H107.575L107.633 41.7176L111.163 39.719L111.165 39.7176L115.682 37.232L120.703 35.7396L120.753 35.7246L120.793 35.6906L124.323 32.6933L124.326 32.6906L129.358 28.7026L132.315 26.75H134.763H134.866L134.939 26.6776L137.389 24.25H140.315H140.417L140.491 24.1776L143.006 21.6856L145.986 19.2252L150.95 17.75H153.941H154.056L154.13 17.6636L157.084 14.25H161.007H161.043L161.078 14.2396L166.125 12.7396L166.161 12.7291L166.192 12.7086L169.22 10.7086L169.275 10.672L169.305 10.6126L171.299 6.66176L173.711 4.75H176.594L178.534 5.71118L181.54 8.19279L181.61 8.25H181.7H185.737H185.782L185.824 8.23435L189.862 6.7344L189.867 6.73242L192.159 5.82392L193.076 8.0936L193.139 8.25H193.308H196.84H196.899L196.951 8.22402L199.98 6.72402L199.98 6.72436L199.992 6.71756L203.525 4.71756L203.581 4.68538L203.615 4.62951L205.106 2.168L207.526 0.25H209.897L213.245 2.14576V60.75H0.259399V35.8777L3.44456 37.2301L3.49139 37.25H3.54226Z" fill="white" stroke="white" stroke-width="0.5"/>
</svg>
